<?xml version="1.0" encoding="utf-8"?>
<!-- Generator: Adobe Illustrator 16.0.0, SVG Export Plug-In . SVG Version: 6.00 Build 0)  -->
<!DOCTYPE svg PUBLIC "-//W3C//DTD SVG 1.1//EN" "http://www.w3.org/Graphics/SVG/1.1/DTD/svg11.dtd">
<svg version="1.1" id="Layer_1" xmlns="http://www.w3.org/2000/svg" xmlns:xlink="http://www.w3.org/1999/xlink" x="0px" y="0px"
	 width="81.5px" height="68.5px" viewBox="197.25 0 81.5 68.5" enable-background="new 197.25 0 81.5 68.5" xml:space="preserve">
<g id="Captions">
	<path fill="none" stroke="#5BBDA7" stroke-miterlimit="10" d="M248.588,37.219c-0.004,0-0.006-0.002-0.008-0.002h-2.822
		c0.418-1.423,0.707-3.011,0.785-4.716h3.383C249.807,34.199,249.342,35.787,248.588,37.219z M238.906,43.587v-4.704h4.488
		c-0.875,2.095-1.902,3.625-2.484,4.397C240.262,43.445,239.592,43.534,238.906,43.587z M235.158,43.302
		c-0.58-0.764-1.615-2.304-2.5-4.419h4.582v4.719C236.527,43.556,235.832,43.466,235.158,43.302z M227.414,37.219
		c-0.754-1.433-1.221-3.02-1.34-4.719h3.432c0.08,1.705,0.367,3.293,0.785,4.716h-2.867
		C227.42,37.217,227.418,37.219,227.414,37.219z M227.494,25.97c0.008,0.001,0.012,0.005,0.02,0.005h2.834
		c-0.527,1.691-0.773,3.314-0.838,4.86h-3.436C226.197,29.079,226.693,27.44,227.494,25.97z M237.242,19.733v4.576h-4.48
		c0.631-1.412,1.469-2.86,2.572-4.33C235.951,19.838,236.592,19.775,237.242,19.733z M240.73,19.999
		c1.096,1.464,1.93,2.905,2.559,4.311h-4.383v-4.561C239.527,19.795,240.141,19.86,240.73,19.999z M243.938,25.975
		c0.574,1.695,0.85,3.32,0.922,4.86h-5.953v-4.86H243.938z M237.242,25.975v4.86h-6.053c0.072-1.541,0.348-3.166,0.926-4.86H237.242
		z M231.188,32.5h6.055v4.716h-5.197C231.596,35.81,231.273,34.227,231.188,32.5z M238.906,37.217V32.5h5.955
		c-0.086,1.727-0.406,3.309-0.855,4.716H238.906z M246.537,30.835c-0.061-1.546-0.309-3.169-0.834-4.86h2.785
		c0.006,0,0.012-0.004,0.02-0.005c0.799,1.471,1.295,3.109,1.418,4.866H246.537z M247.422,24.31h-2.34
		c-0.443-1.084-0.982-2.186-1.672-3.306C244.982,21.806,246.344,22.932,247.422,24.31z M232.67,20.961
		c-0.701,1.136-1.254,2.25-1.701,3.349h-2.391C229.676,22.909,231.064,21.765,232.67,20.961z M228.459,38.883h2.393
		c0.51,1.33,1.094,2.466,1.635,3.394C230.904,41.449,229.531,40.298,228.459,38.883z M243.584,42.235
		c0.537-0.919,1.111-2.041,1.613-3.353h2.342C246.484,40.276,245.139,41.411,243.584,42.235z"/>
</g>
<path fill="none" stroke="#55656F" stroke-miterlimit="10" d="M251.815,57.408H224.11c-0.814,0-1.555,0.666-1.555,1.557v3.109
	c0,0.816,0.666,1.557,1.555,1.557h27.779c0.814,0,1.555-0.666,1.555-1.557v-3.109C253.37,58.148,252.704,57.408,251.815,57.408z"/>
<path fill="none" stroke="#55656F" stroke-miterlimit="10" d="M275.189,49.835c0,2.209-1.791,4-4,4h-66.379c-2.209,0-4-1.791-4-4
	V13.501c0-2.209,1.791-4,4-4h66.379c2.209,0,4,1.791,4,4V49.835z"/>
</svg>
