<?xml version="1.0" encoding="utf-8"?>
<!-- Generator: Adobe Illustrator 16.0.0, SVG Export Plug-In . SVG Version: 6.00 Build 0)  -->
<!DOCTYPE svg PUBLIC "-//W3C//DTD SVG 1.1//EN" "http://www.w3.org/Graphics/SVG/1.1/DTD/svg11.dtd">
<svg version="1.1" id="Layer_1" xmlns="http://www.w3.org/2000/svg" xmlns:xlink="http://www.w3.org/1999/xlink" x="0px" y="0px"
	 width="81.5px" height="68.5px" viewBox="100 0 81.5 68.5" enable-background="new 100 0 81.5 68.5" xml:space="preserve">
<g id="logo" display="none">
</g>
<g id="midias-sociais" display="none">
	<g display="inline">
		<path d="M122.407,91.556c0,7.333-6,13.333-13.333,13.333H-6.481c-7.333,0-13.333-6-13.333-13.333V-24
			c0-7.333,6-13.333,13.333-13.333h115.556c7.333,0,13.333,6,13.333,13.333V91.556z"/>
		<path d="M122.407,91.556V34.667L93.74,6.296l-2.147,31.926l-16.296-0.519L64.481,24.889L50.037,41.037l17.186,4.741v28.888
			l-33.334-1.11l31.26,31.407h43.926C116.407,104.889,122.407,98.963,122.407,91.556z"/>
	</g>
</g>
<g id="midias-sociais_copy" display="none">
	<g display="inline">
		<path opacity="0.5" enable-background="new    " d="M144.26,36.222c0,50-40.52,90.592-90.594,90.592
			c-50.073,0-90.592-40.518-90.592-90.592c0-50,40.519-90.592,90.592-90.592C103.74-54.37,144.26-13.778,144.26,36.222z"/>
		<circle cx="49.667" cy="32.222" r="90.592"/>
		<path d="M103.148-3.111l-2.741,40.667l-20.741-0.667l-4.592,8.667l-5.63,38.37L27,82.519l38.148,38.963
			c42.074-7.259,74.222-43.481,75.037-87.407L103.148-3.111z"/>
		<path d="M96.556-11.037H64.407c-5.333,0-9.63,4.296-9.63,9.63v32.148c0,0.444,0.074,0.963,0.148,1.407h13.26
			c4.889,0,8.814,3.63,9.48,8.296h18.89c5.333,0,9.63-4.296,9.63-9.629V-1.407C106.186-6.741,101.889-11.037,96.556-11.037z
			 M98.556,15.407h-5.853v21.259h-8.814V15.407h-4.37V8.074h4.37V3.704c0-6,2.445-9.556,9.482-9.556h5.852v7.333h-3.704
			c-2.741,0-2.889,1.037-2.889,2.963v3.63h6.667L98.556,15.407z"/>
	</g>
</g>
<g id="expansao" display="none">
	<g display="inline">
		<path d="M143.889,33.852c0,51.111-41.481,92.592-92.592,92.592c-51.112,0-92.593-41.481-92.593-92.592
			c0-51.111,41.481-92.593,92.593-92.593C102.407-58.741,143.889-17.259,143.889,33.852z"/>
		<path d="M112.703,12.296l-34.74,3.259L55.297,31.704L40.037,68l-7.185,15.63l40.222,40.222
			c37.777-9.111,66.519-41.407,70.297-81.037L112.703,12.296z"/>
		<path d="M31.741,80.889c0-8,7.259-10.074,7.259-17.333c0-5.259-3.259-7.186-8.148-7.259c-5.111,0-10.074,2.073-15.111,2.073
			h-0.222c0-0.74,0-1.407-0.074-2.147c-0.667-6.815-2-13.63-2-20.445c0-4.667,1.852-9.481,7.259-9.481
			c7.185,0,9.333,7.259,17.333,7.259c7.111,0,11.037-5.704,11.037-12.444c0-6.889-3.778-13.259-11.333-13.259
			c-8.37,0-11.926,6.37-16.444,6.37c-2.296,0-4.371-1.481-5.852-3.037c-2-2-2.37-4.889-2.37-7.629
			c0-5.408,0.741-10.741,1.555-16.074c0.223-1.185,0.371-2.444,0.519-3.629l0.148-0.889c0.074-0.148,0.074-0.296,0.148-0.296h67.259
			c-0.222,0.296-0.666,4.148-0.814,4.815C81-7.259,80.26-1.852,80.26,3.556c0,2.741,0.37,5.629,2.296,7.704
			c1.481,1.556,3.556,3.037,5.852,3.037c4.519,0,8.148-6.371,16.444-6.371c7.556,0,11.334,6.371,11.334,13.333
			c0,6.667-3.852,12.371-11.037,12.371c-8,0-10.148-7.26-17.334-7.26c-5.407,0-7.259,4.889-7.259,9.482
			c0,7.555,1.704,15.037,2.074,22.518h-0.148c-0.222-0.222-4.147-0.667-4.815-0.814c-5.11-0.89-10.518-1.63-15.852-1.63
			c-2.74,0-5.629,0.371-7.703,2.297c-1.556,1.48-3.037,3.555-3.037,5.852c0,4.519,6.37,8.148,6.37,16.444
			c0,7.556-6.37,11.333-13.259,11.333C37.444,91.926,31.741,88,31.741,80.889z"/>
	</g>
</g>
<g id="expansao_copy" display="none">
	<g display="inline">
		<circle opacity="0.5" enable-background="new    " cx="53.814" cy="36.37" r="90.444"/>
		<path d="M140.037,32.148c0,50-40.519,90.445-90.444,90.445c-49.926,0-90.519-40.519-90.519-90.445
			c0-50,40.519-90.444,90.444-90.444S140.037-17.852,140.037,32.148z"/>
		<path d="M109.593,11.111l-33.927,3.111L53.444,30L38.556,65.407l-6.963,15.259L70.926,120
			c36.963-8.963,64.963-40.519,68.667-79.185L109.593,11.111z"/>
		<path d="M30.481,78.074c0-7.852,7.111-9.852,7.111-16.963c0-5.111-3.186-7.037-7.926-7.037c-5.037,0-9.852,2.074-14.741,2h-0.37
			c0-0.74,0-1.408-0.074-2.148C13.815,47.333,12.556,40.667,12.556,34c0-4.593,1.778-9.333,7.037-9.333
			c7.037,0,9.111,7.111,16.963,7.111c6.963,0,10.741-5.556,10.741-12.148c0-6.741-3.704-12.963-11.111-12.963
			c-8.074,0.074-11.629,6.296-16,6.296c-2.222,0-4.222-1.407-5.704-2.963c-1.852-2-2.222-4.815-2.222-7.481
			C12.259-2.741,13-8,13.815-13.185c0.222-1.185,0.296-2.371,0.519-3.556l0.148-0.815c0.074-0.148,0.074-0.296,0.148-0.296h65.556
			c-0.223,0.222-0.667,4.074-0.741,4.667C78.63-8,77.889-2.741,77.889,2.519C77.889,5.185,78.26,8,80.111,10
			c1.481,1.556,3.481,2.963,5.703,2.963c4.445,0,7.926-6.222,16.074-6.222c7.408,0,11.111,6.222,11.111,13.037
			c0,6.519-3.777,12.074-10.74,12.074c-7.853,0-9.853-7.111-16.963-7.111c-5.26,0-7.037,4.741-7.037,9.333
			c0,7.407,1.703,14.667,2.074,22h-0.148c-0.223-0.223-4.074-0.667-4.667-0.74c-5.185-0.815-10.444-1.557-15.704-1.557
			c-2.666,0-5.48,0.371-7.48,2.223c-1.557,1.481-2.964,3.481-2.964,5.703c0,4.445,6.223,7.927,6.223,16.074
			c0,7.408-6.223,11.111-12.963,11.111C35.963,88.814,30.481,85.037,30.481,78.074z"/>
	</g>
</g>
<path id="cloud2" fill="none" stroke="#5BBDA7" stroke-miterlimit="10" d="M131.524,42.232c-3.85,0-6.973-3.126-6.973-6.975l0,0
	c0.002-3.102,2.014-5.694,4.797-6.61l0,0c0.096-2.628,2.252-4.723,4.9-4.726l0,0c0.846,0,1.645,0.22,2.336,0.601l0,0
	c1.473-2.445,4.148-4.087,7.215-4.087l0,0c4.588,0.002,8.318,3.666,8.426,8.226l0,0c2.744,0.937,4.721,3.526,4.723,6.587l0,0
	c0,3.849-3.125,6.975-6.975,6.975l0,0h-18.449V42.232z"/>
<g id="programacao_copy" display="none">
	<g display="inline">
		<circle opacity="0.5" enable-background="new    " cx="53.814" cy="36.37" r="90.444"/>
		<path d="M140.037,32.148c0,50-40.519,90.445-90.444,90.445c-49.926,0-90.519-40.519-90.519-90.445
			c0-50,40.519-90.444,90.444-90.444S140.037-17.852,140.037,32.148z"/>
		<path d="M2.926,65.703L59,122.074c44.889-4.667,80.074-42.223,80.963-88.148L103-3.111l0.074,61.26l-7.408,5.629L2.926,65.703z"/>
		<g>
			<path d="M95.37-11.111H3.667c-5.555,0-10.074,4.223-10.592,9.704C-6.926-1.037-7-0.741-7-0.37v56.222
				c0,5.926,4.815,10.741,10.741,10.741h91.704c5.556,0,10.074-4.223,10.593-9.704c0-0.37,0.074-0.666,0.074-1.037V-0.37
				C106.037-6.296,101.223-11.111,95.37-11.111z M90.852,61.037H7.296c-5.111,0-9.185-4.148-9.185-9.186V3.556
				c0-5.111,4.889-9.186,10-9.186h83.555c5.037,0,9.186,4.074,9.186,9.186v48.296C100.852,56.963,95.963,61.037,90.852,61.037z"/>
		</g>
	</g>
</g>
<g id="tecnologia" display="none">
	<g display="inline">
		<path d="M143.889,33.852c0,51.111-41.481,92.592-92.592,92.592c-51.112,0-92.593-41.481-92.593-92.592
			c0-51.111,41.481-92.593,92.593-92.593C102.407-58.741,143.889-17.259,143.889,33.852z"/>
		<path d="M105.963,5.63l3.186,18.222L105,32.889l-14.963,9.333l-16.814-3.629L46.481,11.704v8.371l-0.963,4.296l-3.556,7.852
			l-7.556,6.519l-8.519,3.926l-11.704-0.148L3.519,36.593L26.407,57.26L46.037,40L75.74,52.223L77.963,82L51.297,98.519L24.629,82
			l43.778,42.889c40-7.481,70.963-40.666,75.037-81.777L105.963,5.63z"/>
		<path d="M83.297,43.259c-14.148,0-26.89-11.185-26.89-26.371c0-15.111,11.778-22.148,14-23.333
			c2.593-1.408,4.444-2.148,7.407-4.519c1.482-1.111,2.667-2.815,3.037-6.889c2.148,2.519,4.667,5.482,6.445,6.741
			c2.963,1.926,5.926,2.741,9.037,4.667c1.852,1.111,13.406,8.222,13.406,23.778C109.74,32.963,97.444,43.259,83.297,43.259z
			 M104.111,18.074c-2.814,0-8.445,5.778-11.334,5.778c-3.407,0.074-8.222-6.815-15.111-6.741c-5.406,0-9.703,4.37-9.777,8.963
			c0,2.592,0.814,4.519,2.593,5.704c1.185,0.815,2.222,1.259,5.778,1.259c5.852,0,13.259-7.259,16.666-7.111
			c2.74,0.074,6.889,6.741,9.037,6.889c1.703,0.148,2.519-0.593,3.926-2.667c1.408-2.074,2-5.333,2-7.185
			C107.889,21.185,107.074,18.074,104.111,18.074z M96.037,36.593c-1.186,0.889-3.852,1.926-7.556,1.926
			c-3.778,0-5.556-0.815-6.741-1.704c-0.147-0.148-0.074-0.148-0.37-0.148c-0.37,0-0.593,0.148-0.889,0.445
			c-0.296,0.222-0.444,0.814,0,1.259c2.593,2.371,6.89,2.148,10.074,1.852s5.926-2.222,6.147-2.444
			c0.445-0.444,0.297-0.741,0.223-1.037C96.852,36.519,96.63,36.148,96.037,36.593z M94.186,30.593
			c-0.667-0.445-1.704-0.519-2.667-0.519s-1.481-0.074-2.444,0.37c-1.037,0.444-2.074,1.333-2.74,1.926
			c-0.668,0.593-0.741,1.037-0.445,1.556c0.371,0.444,0.741,0.148,1.704-0.667c1.037-0.815,1.63-1.556,3.704-1.556
			s2.369,0.741,2.814,1.556C94.556,34,94.556,34.148,95,33.926c0.519-0.222,0.74-0.592,0.519-1.185S94.852,31.111,94.186,30.593z"/>
	</g>
</g>
<g id="tecnologia_copy" display="none">
	<g display="inline">
		<circle opacity="0.5" enable-background="new    " cx="53.814" cy="36.37" r="90.444"/>
		<path d="M140.037,32.148c0,50-40.519,90.445-90.444,90.445c-49.926,0-90.519-40.519-90.519-90.445
			c0-50,40.519-90.444,90.444-90.444S140.037-17.852,140.037,32.148z"/>
		<path d="M103,4.593l3.111,17.852l-4.074,8.815l-14.593,9.037L71,36.741L44.852,10.444v8.148l-0.963,4.222l-3.481,7.778L33,36.963
			l-8.296,3.852l-11.481-0.148L2.778,34.889l22.37,20.223l19.186-16.889L73.444,50l2.148,29.111L49.519,95.26L23.444,79.111
			l42.815,41.926c39.11-7.334,69.333-39.777,73.259-79.926L103,4.593z"/>
		<path d="M80.777,41.333c-13.852,0-26.296-10.889-26.296-25.704C54.481,0.815,66.037-6,68.186-7.185
			c2.518-1.333,4.37-2.074,7.259-4.371c1.407-1.111,2.593-2.741,2.963-6.741c2.074,2.444,4.519,5.333,6.296,6.519
			c2.89,1.926,5.778,2.667,8.815,4.519c1.853,1.111,13.111,8,13.111,23.259C106.629,31.259,94.63,41.333,80.777,41.333z
			 M101.148,16.741c-2.741,0-8.223,5.629-11.111,5.704c-3.334,0.074-8-6.667-14.74-6.592c-5.26,0-9.482,4.222-9.557,8.741
			c0,2.519,0.815,4.37,2.52,5.555c1.185,0.815,2.222,1.259,5.629,1.259c5.704,0,12.963-7.037,16.297-6.963
			c2.666,0.074,6.74,6.593,8.814,6.741c1.63,0.148,2.444-0.592,3.852-2.592c1.334-2.074,1.926-5.259,1.926-7.037
			C104.852,19.704,104.037,16.741,101.148,16.741z M93.297,34.741c-1.186,0.815-3.704,1.926-7.408,1.926
			c-3.703,0-5.407-0.814-6.519-1.629c-0.147-0.148-0.073-0.148-0.444-0.148c-0.37,0-0.592,0.148-0.889,0.371s-0.444,0.815,0,1.259
			c2.519,2.296,6.74,2.074,9.777,1.852c3.111-0.296,5.778-2.148,6.074-2.444c0.371-0.444,0.297-0.741,0.223-0.963
			C94.037,34.667,93.814,34.37,93.297,34.741z M91.444,28.963c-0.667-0.444-1.63-0.519-2.593-0.519
			c-0.889,0-1.407-0.074-2.444,0.371c-0.963,0.37-2,1.333-2.667,1.926c-0.666,0.593-0.74,1.037-0.443,1.481
			c0.369,0.444,0.74,0.148,1.703-0.667c0.963-0.815,1.63-1.481,3.63-1.481s2.37,0.741,2.74,1.481s0.444,0.814,0.815,0.667
			c0.443-0.222,0.74-0.592,0.443-1.185C92.556,30.444,92.186,29.407,91.444,28.963z"/>
	</g>
</g>
<g id="suporte_copy" display="none">
	<g display="inline">
		<circle opacity="0.5" enable-background="new    " cx="53.814" cy="36.37" r="90.444"/>
		<path d="M140.037,32.148c0,50-40.519,90.445-90.444,90.445c-49.926,0-90.519-40.519-90.519-90.445
			c0-50,40.519-90.444,90.444-90.444S140.037-17.852,140.037,32.148z"/>
		<path d="M94.63,7.852l3.481,29.037l-11.704,29.26L61.444,79.334L35,77.407l-19.926-8.296l51.777,51.777
			c35.482-6.889,63.482-34.519,71.037-69.777L94.63,7.852z"/>
		<path d="M101.444,31.926c0,28.148-22.815,50.889-50.889,50.889c-28.148,0-50.889-22.74-50.889-50.889
			c0-28.148,22.815-50.889,50.889-50.889C78.703-18.963,101.444,3.778,101.444,31.926z M23.074,41.407
			c-1.037-3.037-1.63-6.222-1.63-9.481c0-3.333,0.593-6.519,1.63-9.481L12.037,11.407c-3.259,6.148-5.111,13.111-5.111,20.519
			c0,7.408,1.852,14.371,5.111,20.519L23.074,41.407z M72.407,31.926c0-12.074-9.777-21.852-21.777-21.852
			c-12.074,0-21.778,9.778-21.778,21.852c0,12,9.777,21.777,21.778,21.777C62.63,53.777,72.407,44,72.407,31.926z M30.037-6.593
			L41.074,4.444c3.037-1.037,6.222-1.556,9.481-1.556c3.333,0,6.444,0.593,9.481,1.556L71.074-6.593
			c-6.148-3.185-13.111-5.111-20.519-5.111C43.148-11.704,36.185-9.778,30.037-6.593z M71.074,70.444L60.037,59.407
			c-3.037,1.037-6.148,1.556-9.481,1.556c-3.259,0-6.444-0.593-9.481-1.556L30.037,70.444c6.148,3.259,13.111,5.111,20.519,5.111
			C57.963,75.556,64.926,73.703,71.074,70.444z M89.074,52.444c3.26-6.148,5.111-13.111,5.111-20.519
			c0-7.407-1.852-14.37-5.111-20.519L78.037,22.444c1.037,3.037,1.556,6.222,1.556,9.481c0,3.333-0.593,6.444-1.556,9.481
			L89.074,52.444z"/>
	</g>
</g>
<g id="entrega" display="none">
	<g display="inline">
		<path d="M143.889,33.852c0,51.111-41.481,92.592-92.592,92.592c-51.112,0-92.593-41.481-92.593-92.592
			c0-51.111,41.481-92.593,92.593-92.593C102.407-58.741,143.889-17.259,143.889,33.852z"/>
		<path d="M97.444,9.037L101,38.741L88.926,68.666L63.371,82.148l-27.038-1.926l-20.296-8.52l53.037,53.037
			c36.296-7.037,64.963-35.333,72.74-71.406L97.444,9.037z"/>
		<path d="M52.334,85.334c-28.593,0-51.853-23.26-51.853-51.853S23.741-18.37,52.334-18.37c28.592,0,51.852,23.259,51.852,51.852
			S80.926,85.334,52.334,85.334z M52.334-3.259c-20.297,0-36.741,16.444-36.741,36.741c0,20.222,16.444,36.741,36.741,36.741
			c20.222,0,36.74-16.52,36.74-36.741C89.074,13.185,72.556-3.259,52.334-3.259z M60.926,39.926c0,1.186-0.963,2.148-2.148,2.148
			H37.222c-1.185,0-2.148-0.963-2.148-2.148V35.63c0-1.186,0.963-2.148,2.148-2.148h15.112V9.704c0-1.185,0.963-2.148,2.147-2.148
			h4.296c1.186,0,2.148,0.963,2.148,2.148V39.926z"/>
	</g>
</g>
<g id="entrega_copy" display="none">
	<g display="inline">
		<circle opacity="0.5" enable-background="new    " cx="53.814" cy="36.37" r="90.444"/>
		<path d="M140.037,32.148c0,50-40.519,90.445-90.444,90.445c-49.926,0-90.519-40.519-90.519-90.445
			c0-50,40.519-90.444,90.444-90.444S140.037-17.852,140.037,32.148z"/>
		<path d="M94.63,7.852l3.481,29.037l-11.704,29.26L61.444,79.334L35,77.407l-19.926-8.296l51.777,51.777
			c35.482-6.889,63.482-34.519,71.037-69.777L94.63,7.852z"/>
		<path d="M50.556,82.37c-28,0-50.667-22.667-50.667-50.667c0-28,22.667-50.667,50.667-50.667s50.667,22.667,50.667,50.667
			C101.223,59.703,78.556,82.37,50.556,82.37z M50.556-4.148c-19.778,0-35.926,16.074-35.926,35.852S30.778,67.63,50.556,67.63
			c19.778,0,35.926-16.074,35.926-35.926C86.407,11.926,70.334-4.148,50.556-4.148z M59,38.074c0,1.185-0.963,2.148-2.148,2.148
			H35.741c-1.185,0-2.074-0.889-2.074-2.148v-4.222c0-1.186,0.889-2.148,2.074-2.148h14.815V8.519c0-1.185,0.889-2.148,2.074-2.148
			h4.222C58.037,6.37,59,7.259,59,8.519V38.074z"/>
	</g>
</g>
<g id="web-design_copy" display="none">
	<g display="inline">
		<path opacity="0.5" enable-background="new    " d="M144.26,36.37c0,50-40.52,90.519-90.52,90.519
			c-50,0-90.592-40.519-90.592-90.519S3.741-54.222,53.74-54.222C103.74-54.222,144.26-13.63,144.26,36.37z"/>
		<path d="M140.186,32.148c0,50-40.52,90.518-90.519,90.518c-50,0-90.519-40.518-90.519-90.518c0-50,40.519-90.518,90.519-90.518
			C99.593-58.444,140.186-17.852,140.186,32.148z"/>
		<path d="M103.074,5.63l0.074,52.519l-7.408,5.629l-92.814,2l56.148,56.445c42.296-4.371,75.852-37.853,80.519-80.075L103.074,5.63
			z"/>
		<g>
			<path d="M93.444-8.519c0,0-0.667,5.704-1.852,6.889c-1.333,1.333-7.259,1.926-7.259,1.926S90.26,0.667,91.593,2
				c1.481,1.407,1.852,7.852,1.852,7.852S94.186,3.407,95.666,2c1.186-1.111,7.111-1.704,7.111-1.704s-5.926-0.815-7.111-1.926
				C94.334-2.889,93.444-8.519,93.444-8.519z"/>
		</g>
		<g>
			<path d="M100.777,3.556L100.777,3.556v48.296c0,5.111-4.147,9.186-9.185,9.186H7.963c-5.037,0-9.185-4.148-9.185-9.186V3.556
				c0-5.111,4.148-9.186,9.185-9.186h58.074v-5.481H4.259c-5.926,0-10.741,4.815-10.741,10.741v56.222
				c0,5.926,4.815,10.741,10.741,10.741h91.778c5.926,0,10.74-4.815,10.74-10.741V3.556H100.777z"/>
		</g>
	</g>
</g>
<g id="hospedagem_copy_2" display="none">
	<path display="inline" opacity="0.5" enable-background="new    " d="M148.186,38.222c0,51.112-41.482,92.592-92.593,92.592
		C4.481,130.814-37,89.334-37,38.222C-37-12.889,4.481-54.37,55.593-54.37C106.777-54.37,148.186-12.963,148.186,38.222z"/>
	<path display="inline" d="M143.889,33.852c0,51.111-41.481,92.592-92.592,92.592c-51.112,0-92.593-41.481-92.593-92.592
		c0-51.111,41.481-92.593,92.593-92.593C102.407-58.741,143.889-17.259,143.889,33.852z"/>
	<path display="inline" d="M143.666,40.296L95.74-7.407l1.853,85.333l-89.63,1.186l46.593,47.186
		C102.037,124.74,140.407,87.334,143.666,40.296z"/>
	<path display="inline" d="M95.074,21.778H9.519c-2.741,0-4.963,2.222-4.963,4.963v16.593c0,2.741,2.222,4.963,4.963,4.963h85.63
		c2.74,0,4.963-2.222,4.963-4.963V26.741C100.037,24,97.814,21.778,95.074,21.778z M26.185,36.593c0,0.741-0.592,1.333-1.333,1.333
		h-2.667c-0.741,0-1.333-0.592-1.333-1.333v-2.667c0-0.741,0.592-1.333,1.333-1.333h2.667c0.741,0,1.333,0.592,1.333,1.333V36.593z
		 M36.629,36.593c0,0.741-0.592,1.333-1.333,1.333h-2.667c-0.741,0-1.333-0.592-1.333-1.333v-2.667c0-0.741,0.592-1.333,1.333-1.333
		h2.667c0.741,0,1.333,0.592,1.333,1.333V36.593z M84.481,36.593c0,0.741-0.593,1.333-1.333,1.333H64.481
		c-0.741,0-1.333-0.592-1.333-1.333v-2.667c0-0.741,0.592-1.333,1.333-1.333h18.667c0.74,0,1.333,0.592,1.333,1.333V36.593z"/>
	<path display="inline" d="M95.074,54.148H9.519c-2.741,0-4.963,2.222-4.963,4.963v16.592c0,2.741,2.222,4.963,4.963,4.963h85.63
		c2.74,0,4.963-2.222,4.963-4.963V59.111C100.037,56.37,97.814,54.148,95.074,54.148z M26.185,68.963
		c0,0.74-0.592,1.334-1.333,1.334h-2.667c-0.741,0-1.333-0.594-1.333-1.334v-2.666c0-0.741,0.592-1.334,1.333-1.334h2.667
		c0.741,0,1.333,0.593,1.333,1.334V68.963z M36.629,68.963c0,0.74-0.592,1.334-1.333,1.334h-2.667c-0.741,0-1.333-0.594-1.333-1.334
		v-2.666c0-0.741,0.592-1.334,1.333-1.334h2.667c0.741,0,1.333,0.593,1.333,1.334V68.963z M84.481,68.963
		c0,0.74-0.593,1.334-1.333,1.334H64.481c-0.741,0-1.333-0.594-1.333-1.334v-2.666c0-0.741,0.592-1.334,1.333-1.334h18.667
		c0.74,0,1.333,0.593,1.333,1.334V68.963z"/>
	<path display="inline" d="M95.074-10.593H9.519c-2.741,0-4.963,2.223-4.963,4.963v16.593c0,2.741,2.222,4.963,4.963,4.963h85.63
		c2.74,0,4.963-2.222,4.963-4.963V-5.63C100.037-8.37,97.814-10.593,95.074-10.593z M26.185,4.222c0,0.741-0.592,1.333-1.333,1.333
		h-2.667c-0.741,0-1.333-0.593-1.333-1.333V1.556c0-0.741,0.592-1.333,1.333-1.333h2.667c0.741,0,1.333,0.593,1.333,1.333V4.222z
		 M36.629,4.222c0,0.741-0.592,1.333-1.333,1.333h-2.667c-0.741,0-1.333-0.593-1.333-1.333V1.556c0-0.741,0.592-1.333,1.333-1.333
		h2.667c0.741,0,1.333,0.593,1.333,1.333V4.222z M84.481,4.222c0,0.741-0.593,1.333-1.333,1.333H64.481
		c-0.741,0-1.333-0.593-1.333-1.333V1.556c0-0.741,0.592-1.333,1.333-1.333h18.667c0.74,0,1.333,0.593,1.333,1.333V4.222z"/>
</g>
<g id="solucoes" display="none">
	<g display="inline">
		<path d="M143.889,33.778c0,51.111-41.481,92.592-92.592,92.592c-51.112,0-92.593-41.481-92.593-92.592
			c0-51.111,41.481-92.593,92.593-92.593C102.407-58.815,143.889-17.407,143.889,33.778z"/>
		<path d="M143.666,40.148l-29.629-30l-4.519,10.445l-13.185,7.704l-13.186-1.63L75.74,40.148l8.074,18.667l-8.37,14.445
			l-15.11,2.222l-11.63-8.296L46.778,54l9.333-13.481l-8.963-13.852l-19.259,0.667l-8.741,13.185l9.037,11.556L24.926,70.74
			L5.815,76.814l48.667,49.482C102.037,124.666,140.407,87.26,143.666,40.148z"/>
		<g>
			<path d="M93.148-10.667c-11.482,0-20.814,9.333-20.814,20.814c0,6.815,3.259,12.815,8.296,16.667l-6.593,12
				c-2.814-1.408-6-2.222-9.407-2.222c-2.89,0-5.63,0.592-8.148,1.629l-6.815-11.629c4.889-3.852,8-9.704,8-16.371
				c0-11.481-9.333-20.815-20.814-20.815c-11.481-0.074-20.815,9.259-20.815,20.741c0,6.815,3.333,12.889,8.37,16.667l-6.296,11.629
				c-2.667-1.185-5.556-1.926-8.667-1.926c-11.481,0-20.814,9.333-20.814,20.889c0,11.481,9.333,20.815,20.814,20.815
				s20.815-9.334,20.815-20.815c0-6.889-3.407-13.037-8.593-16.814l6.296-11.556c2.667,1.259,5.704,2,8.889,2
				c3.333,0,6.519-0.815,9.333-2.222l6.667,11.407c-5.407,3.704-9.037,10-9.037,17.185c0,11.481,9.333,20.815,20.815,20.815
				s20.814-9.334,20.814-20.815c0-6.593-3.11-12.519-7.926-16.37l6.593-12.074c2.74,1.259,5.777,2.074,8.963,2.074
				c11.481,0,20.814-9.333,20.814-20.815C113.963-1.333,104.63-10.667,93.148-10.667z M26.111,57.407
				c0,9.186-7.482,16.667-16.667,16.667S-7.222,66.593-7.222,57.407c0-9.185,7.481-16.667,16.667-16.667
				S26.111,48.222,26.111,57.407z M20.185,10.148c0-9.185,7.481-16.667,16.667-16.667c9.259,0,16.667,7.481,16.667,16.667
				c0,9.186-7.407,16.667-16.667,16.667C27.667,26.815,20.185,19.333,20.185,10.148z M81.37,57.407
				c0,9.186-7.481,16.667-16.667,16.667c-9.185,0-16.666-7.481-16.666-16.667c0-9.185,7.481-16.667,16.666-16.667
				C73.889,40.741,81.37,48.222,81.37,57.407z M93.148,26.815c-9.186,0-16.667-7.481-16.667-16.667
				c0-9.185,7.481-16.667,16.667-16.667s16.666,7.481,16.666,16.667C109.814,19.333,102.334,26.815,93.148,26.815z"/>
			<path d="M104.186,10.222c0,6.148-4.963,11.111-11.111,11.111S81.963,16.37,81.963,10.222S86.926-0.889,93.074-0.889
				S104.186,4.074,104.186,10.222z M87.074,12.296c-0.223-0.667-0.371-1.333-0.371-2.074s0.148-1.407,0.371-2.074l-2.371-2.37
				c-0.74,1.333-1.11,2.889-1.11,4.444c0,1.63,0.444,3.111,1.11,4.444L87.074,12.296z M97.889,10.222
				c0-2.667-2.148-4.741-4.74-4.741c-2.667,0-4.741,2.148-4.741,4.741c0,2.593,2.148,4.741,4.741,4.741
				C95.74,14.963,97.889,12.815,97.889,10.222z M88.63,1.778L91,4.148c0.666-0.222,1.334-0.37,2.074-0.37s1.407,0.148,2.074,0.37
				l2.37-2.37c-1.333-0.741-2.889-1.111-4.444-1.111S89.963,1.111,88.63,1.778z M97.593,18.593l-2.37-2.371
				c-0.667,0.222-1.334,0.371-2.074,0.371c-0.741,0-1.408-0.148-2.074-0.371l-2.371,2.371c1.334,0.741,2.89,1.111,4.445,1.111
				C94.703,19.704,96.26,19.333,97.593,18.593z M101.519,14.667c0.741-1.333,1.111-2.889,1.111-4.444
				c0-1.629-0.444-3.111-1.111-4.444l-2.37,2.37c0.223,0.667,0.37,1.333,0.37,2.074s-0.147,1.408-0.37,2.074L101.519,14.667z"/>
		</g>
	</g>
</g>
<g id="solucoes_copy" display="none">
	<g display="inline">
		<circle opacity="0.5" enable-background="new    " cx="53.814" cy="36.444" r="90.444"/>
		<path d="M140.037,32.074c0,50-40.519,90.444-90.444,90.444c-49.926,0-90.519-40.444-90.519-90.444S-0.407-58.37,49.519-58.37
			S140.037-17.926,140.037,32.074z"/>
		<path d="M139.814,38.296L110.852,8.963l-4.37,10.148l-12.963,7.629L80.63,25.185L73.37,38.37l7.853,18.223L73.148,70.74
			l-14.741,2.223l-11.333-8.148l-1.852-12.889l9.038-13.259l-8.815-13.481l-18.815,0.593l-8.518,12.889L26.926,50l-3.111,18.223
			L5.148,74.148l47.555,48.37C99.148,120.889,136.629,84.37,139.814,38.296z"/>
		<path d="M90.481-11.333c-11.259,0-20.37,9.111-20.37,20.371c0,6.667,3.186,12.519,8.148,16.222l-6.445,11.778
			c-2.74-1.407-5.852-2.222-9.185-2.222c-2.815,0-5.481,0.592-7.927,1.629l-6.666-11.407c4.74-3.704,7.777-9.481,7.777-16
			c0-11.259-9.111-20.371-20.37-20.371c-11.185,0-20.37,9.111-20.37,20.371c0,6.667,3.259,12.593,8.222,16.296l-6.148,11.333
			c-2.592-1.185-5.407-1.852-8.444-1.852c-11.259,0-20.37,9.111-20.37,20.371c0,11.259,9.111,20.37,20.37,20.37S29,66.444,29,55.186
			c0-6.741-3.333-12.741-8.371-16.445l6.223-11.333c2.592,1.259,5.555,1.926,8.667,1.926c3.259,0,6.37-0.815,9.111-2.148
			l6.519,11.185c-5.333,3.704-8.815,9.852-8.815,16.815c0,11.259,9.111,20.37,20.37,20.37c11.26,0,20.371-9.111,20.371-20.37
			c0-6.445-3.037-12.223-7.777-16l6.443-11.852c2.667,1.259,5.63,2,8.741,2c11.259,0,20.37-9.111,20.37-20.371
			C110.852-2.222,101.666-11.333,90.481-11.333z M24.926,55.186c0,8.963-7.333,16.296-16.296,16.296
			c-8.963,0-16.296-7.333-16.296-16.296c0-8.963,7.333-16.297,16.296-16.297C17.667,38.889,24.926,46.222,24.926,55.186z
			 M19.148,9.037c0-8.963,7.333-16.296,16.296-16.296S51.74,0.074,51.74,9.037s-7.333,16.296-16.296,16.296S19.148,18,19.148,9.037z
			 M78.926,55.186c0,8.963-7.333,16.296-16.296,16.296c-8.964,0-16.296-7.333-16.296-16.296c0-8.963,7.333-16.297,16.296-16.297
			C71.593,38.889,78.926,46.222,78.926,55.186z M90.481,25.333c-8.963,0-16.296-7.333-16.296-16.296S81.519-7.259,90.481-7.259
			s16.296,7.333,16.296,16.296S99.444,25.333,90.481,25.333z"/>
		<path d="M101.297,9.037c0,6-4.89,10.889-10.89,10.889S79.519,15.037,79.519,9.037S84.407-1.852,90.407-1.852
			C96.407-1.778,101.297,3.037,101.297,9.037z M84.556,11.111c-0.222-0.667-0.37-1.333-0.37-2c0-0.741,0.148-1.408,0.37-2
			l-2.37-2.371c-0.667,1.333-1.111,2.815-1.111,4.371c0,1.555,0.37,3.037,1.111,4.37L84.556,11.111z M95.074,9.037
			c0-2.593-2.074-4.667-4.667-4.667S85.74,6.444,85.74,9.037s2.074,4.667,4.667,4.667S95.074,11.63,95.074,9.037z M86.037,0.815
			l2.37,2.37c0.667-0.222,1.333-0.37,2-0.37c0.741,0,1.407,0.148,2,0.37l2.37-2.37c-1.333-0.667-2.814-1.111-4.37-1.111
			C88.852-0.222,87.37,0.148,86.037,0.815z M94.777,17.259l-2.37-2.371c-0.667,0.223-1.333,0.371-2,0.371s-1.407-0.148-2-0.371
			l-2.37,2.371c1.334,0.667,2.814,1.111,4.37,1.111S93.444,18,94.777,17.259z M98.63,13.407c0.667-1.333,1.11-2.814,1.11-4.37
			S99.37,6,98.63,4.667l-2.37,2.371c0.222,0.667,0.37,1.333,0.37,2c0,0.667-0.148,1.407-0.37,2L98.63,13.407z"/>
	</g>
</g>
<g id="site-mobile-laranja" display="none">
	<g display="inline">
		<path d="M143.889,33.852c0,51.111-41.481,92.592-92.592,92.592c-51.112,0-92.593-41.481-92.593-92.592
			c0-51.111,41.481-92.593,92.593-92.593C102.407-58.741,143.889-17.259,143.889,33.852z"/>
		<path d="M143.814,37.704L98.629-7.556L5-6.815L4.481,27.556l-8.296,3.629v41.852l53.111,53.333c0.667,0,1.407,0.074,2.074,0.074
			C101.148,126.444,141.74,87.111,143.814,37.704z"/>
		<g>
			<g>
				<path d="M106.556,11.778H69.444c-1.556,0-2.889,1.259-2.889,2.889v57.111c0,1.557,1.259,2.889,2.889,2.889h37.111
					c1.556,0,2.889-1.259,2.889-2.889V14.593C109.444,13.037,108.186,11.778,106.556,11.778z M81.519,16.148
					c0-0.37,0.667-0.667,1.407-0.667h10c0.814,0,1.408,0.296,1.408,0.667v0.667c0,0.37-0.668,0.667-1.408,0.667H83
					c-0.814,0-1.407-0.296-1.407-0.667v-0.667H81.519z M88.037,70.297c-1.334,0-2.444-1.111-2.444-2.445
					c0-1.333,1.11-2.444,2.444-2.444c1.333,0,2.444,1.111,2.444,2.444C90.481,69.186,89.37,70.297,88.037,70.297z M104.852,63.037
					H71.148V19.926h33.703V63.037z"/>
			</g>
		</g>
	</g>
</g>
<g id="site-mobile-cores" display="none">
	<g display="inline">
		<path opacity="0.5" enable-background="new    " d="M143.889,38c0,50-40.519,90.519-90.518,90.519
			c-50,0-90.519-40.519-90.519-90.519S3.371-52.519,53.371-52.519C103.37-52.519,143.889-12,143.889,38z"/>
		<path d="M139.814,33.926c0,50-40.518,90.519-90.518,90.519c-50.074,0-90.593-40.519-90.593-90.519s40.519-90.519,90.519-90.519
			C99.223-56.593,139.814-16.074,139.814,33.926z"/>
		<path d="M139.666,37.704L95.519-6.593l-1.63,22.371l11.26,2.889l-1.482,48.519l-13.11,3.703l-21.037-1.111l-33.704-1.111
			l-40.593,3.557l51.926,52.222c0.667,0,1.333,0.074,2,0.074C97.963,124.444,137.666,85.926,139.666,37.704z"/>
		<path d="M103.297,12.296H67c-1.556,0-2.814,1.259-2.814,2.815v55.852c0,1.556,1.259,2.814,2.814,2.814h36.297
			c1.555,0,2.814-1.259,2.814-2.814V15.111C106.111,13.556,104.852,12.296,103.297,12.296z M78.852,16.593
			c0-0.371,0.667-0.667,1.408-0.667h9.777c0.74,0,1.407,0.296,1.407,0.667v0.667c0,0.371-0.593,0.667-1.407,0.667H80.26
			c-0.741,0-1.408-0.296-1.408-0.667V16.593z M85.148,69.556c-1.334,0-2.445-1.111-2.445-2.444c0-1.334,1.111-2.445,2.445-2.445
			c1.333,0,2.444,1.111,2.444,2.445C87.593,68.444,86.481,69.556,85.148,69.556z M101.666,62.444H68.63V20.296h33.036V62.444z"/>
	</g>
</g>
<g id="marketing-online" display="none">
	<g display="inline">
		<circle opacity="0.5" enable-background="new    " cx="53.814" cy="36.37" r="90.444"/>
		<path d="M140.037,32.148c0,50-40.519,90.445-90.444,90.445c-49.926,0-90.519-40.519-90.519-90.445
			c0-50,40.519-90.444,90.444-90.444S140.037-17.852,140.037,32.148z"/>
		<path d="M2.926,65.703L59,122.074c44.889-4.667,80.074-42.223,80.963-88.148L103-3.111l0.074,61.26l-7.408,5.629L2.926,65.703z"/>
		<path d="M95.814-11.111H4.111c-5.556,0-10.074,4.223-10.593,9.704c0,0.296-0.074,0.667-0.074,1.037v56.222
			c0,5.926,4.815,10.741,10.741,10.741h91.704c5.556,0,10.074-4.223,10.593-9.704c0-0.37,0.074-0.666,0.074-1.037V-0.37
			C106.556-6.296,101.74-11.111,95.814-11.111z M91.37,61.037H7.815c-5.111,0-9.186-4.148-9.186-9.186V3.556
			c0-5.111,4.889-9.186,10-9.186h83.556c5.111,0,9.186,4.074,9.186,9.186v48.222C101.37,56.889,96.481,61.037,91.37,61.037z"/>
	</g>
</g>
<g id="mkt-online-circulo" display="none">
	<g display="inline">
		<path d="M143.889,33.852c0,51.111-41.481,92.592-92.592,92.592c-51.112,0-92.593-41.481-92.593-92.592
			c0-51.111,41.481-92.593,92.593-92.593C102.407-58.741,143.889-17.259,143.889,33.852z"/>
		<path d="M3.593,68.223L61,125.926c46-4.814,81.926-43.186,82.889-90.222L105.963-2.222l0.074,62.667l-7.63,5.778L3.593,68.223z"/>
		<g>
			<path d="M98.63-10.37H4.778C-0.926-10.37-5.519-6-6.037-0.444c0,0.37-0.074,0.667-0.074,1.037v57.556
				c0,6.074,4.889,10.963,10.963,10.963h93.851c5.704,0,10.297-4.371,10.815-9.926c0-0.371,0.074-0.667,0.074-1.037V0.593
				C109.593-5.481,104.703-10.37,98.63-10.37z M94.111,63.481H8.556c-5.185,0-9.408-4.222-9.408-9.407V4.667
				c0-5.185,5.037-9.407,10.223-9.407h85.481c5.186,0,9.408,4.222,9.408,9.407v49.408C104.334,59.26,99.297,63.481,94.111,63.481z"
				/>
		</g>
	</g>
</g>
<g id="loja-virtual_copy_2" display="none">
	<g display="inline">
		<circle opacity="0.5" enable-background="new    " cx="53.814" cy="36.37" r="90.444"/>
		<path d="M140.037,32.074c0,50-40.519,90.444-90.444,90.444c-49.926,0-90.519-40.444-90.519-90.444S-0.407-58.37,49.519-58.37
			S140.037-17.852,140.037,32.074z"/>
		<path d="M2.926,65.703L59,122.074c44.889-4.667,80.074-42.223,80.963-88.148L103-3.185l0.074,61.259l-7.408,5.629L2.926,65.703z"
			/>
		<g>
			<path d="M95.666-11.185H3.963c-5.556,0-10.074,4.296-10.592,9.704c0,0.296-0.074,0.667-0.074,1.037v56.222
				c0,5.926,4.815,10.741,10.741,10.741H95.74c5.557,0,10.074-4.222,10.594-9.704c0.073-0.37,0.073-0.666,0.073-1.037V-0.444
				C106.334-6.37,101.519-11.185,95.666-11.185z M91.148,60.963H7.593c-5.037,0-9.186-4.148-9.186-9.186V3.556
				c0-5.111,4.889-9.186,10-9.186h83.556c5.037,0,9.186,4.148,9.186,9.186v48.296C101.148,56.889,96.26,60.963,91.148,60.963z"/>
		</g>
	</g>
</g>
<g id="cms" display="none">
	<g display="inline">
		<path opacity="0.5" enable-background="new    " d="M144.26,36.37c0,50-40.52,90.519-90.445,90.519
			c-50,0-90.444-40.519-90.444-90.519S3.889-54.148,53.814-54.148C103.74-54.074,144.26-13.556,144.26,36.37z"/>
		<path d="M140.037,32.074c0,50-40.519,90.519-90.444,90.519c-50,0-90.445-40.519-90.445-90.519S-0.333-58.37,49.593-58.37
			C99.519-58.37,140.037-17.852,140.037,32.074z"/>
		<path d="M2.926,65.703L59,122.074c44.889-4.667,80.074-42.223,80.963-88.148L103-3.185l0.074,61.259l-7.408,5.629L2.926,65.703z"
			/>
		<g>
			<path d="M95.37-11.185H3.741c-5.556,0-10.074,4.296-10.593,9.704c0,0.296-0.074,0.667-0.074,1.037v56.222
				c0,5.926,4.814,10.741,10.741,10.741h91.704c5.556,0,10.074-4.222,10.593-9.704c0-0.37,0.074-0.666,0.074-1.037V-0.444
				C106.111-6.37,101.297-11.185,95.37-11.185z M90.926,60.963H7.371c-5.037,0-9.186-4.074-9.186-9.186V3.556
				c0-5.111,4.889-9.186,10-9.186H91.74c5.037,0,9.186,4.148,9.186,9.186v48.222C100.926,56.889,96.037,60.963,90.926,60.963z"/>
		</g>
	</g>
</g>
<g id="cms-laranja" display="none">
	<g display="inline">
		<path d="M143.889,33.778c0,51.111-41.481,92.592-92.592,92.592c-51.112,0-92.593-41.481-92.593-92.592
			c0-51.111,41.481-92.593,92.593-92.593C102.407-58.815,143.889-17.333,143.889,33.778z"/>
		<path d="M3.593,68.148L61,125.852c46-4.814,81.926-43.186,82.889-90.222L105.963-2.296l0.148,62.667l-7.63,5.778L3.593,68.148z"/>
		<g>
			<g>
				<path d="M98.186-10.444H4.407c-5.704,0-10.37,4.37-10.889,9.926c0,0.371-0.148,0.667-0.148,1.037v57.556
					c0,6.074,4.889,10.963,10.963,10.963h93.852c5.703,0,10.296-4.371,10.814-9.926c0-0.371,0.074-0.667,0.074-1.037V0.519
					C109.148-5.556,104.26-10.444,98.186-10.444z M93.666,63.334H8.111c-5.186,0-9.408-4.223-9.408-9.408V4.593
					c0-5.259,5.037-9.408,10.222-9.408h85.481c5.186,0,9.407,4.222,9.407,9.408V54C103.889,59.186,98.852,63.334,93.666,63.334z"/>
			</g>
		</g>
	</g>
</g>
<g id="pagina-basica" display="none">
	<g display="inline">
		<path opacity="0.5" enable-background="new    " d="M144.26,36.37c0,50-40.52,90.444-90.445,90.444
			c-50,0-90.444-40.518-90.444-90.444c0-50,40.518-90.444,90.444-90.444S144.26-13.556,144.26,36.37z"/>
		<path d="M140.037,32.074c0,50-40.519,90.444-90.444,90.444c-49.926,0-90.519-40.444-90.519-90.444S-0.407-58.37,49.519-58.37
			S140.037-17.852,140.037,32.074z"/>
		<path d="M2.926,65.703L59,122.074c44.889-4.667,80.074-42.223,80.963-88.148L103-3.185l0.074,61.259l-7.408,5.629L2.926,65.703z"
			/>
		<g>
			<g>
				<path d="M95.297-11.185H3.593C-1.963-11.185-6.481-6.963-7-1.481c0,0.296-0.074,0.667-0.074,1.037v56.222
					c0,5.926,4.815,10.741,10.741,10.741H95.37c5.556,0,10.074-4.222,10.593-9.704c0-0.37,0.074-0.666,0.074-1.037V-0.444
					C106.037-6.37,101.223-11.185,95.297-11.185z M90.852,60.963H7.296c-5.037,0-9.185-4.148-9.185-9.186V3.556
					c0-5.111,4.889-9.186,10-9.186h83.555c5.037,0,9.186,4.074,9.186,9.186v48.222C100.852,56.889,95.889,60.963,90.852,60.963z"/>
			</g>
		</g>
	</g>
</g>
<g id="pagina-basica-laranja" display="none">
	<g display="inline">
		<path d="M143.889,33.778c0,51.111-41.481,92.592-92.592,92.592c-51.112,0-92.593-41.481-92.593-92.592
			c0-51.111,41.481-92.593,92.593-92.593C102.407-58.815,143.889-17.333,143.889,33.778z"/>
		<path d="M3.593,68.148L61,125.852c46-4.814,81.926-43.186,82.889-90.222L105.963-2.296l0.148,62.667l-7.63,5.778L3.593,68.148z"/>
		<g>
			<g>
				<path d="M98.111-10.444H4.259c-5.704,0-10.296,4.37-10.815,9.926c0,0.371-0.148,0.667-0.148,1.037V58
					c0,6.074,4.889,10.963,10.963,10.963h93.852c5.703,0,10.296-4.37,10.814-9.926c0-0.371,0.074-0.667,0.074-1.037V0.519
					C109.074-5.556,104.111-10.444,98.111-10.444z M93.519,63.334H8.037c-5.185,0-9.408-4.223-9.408-9.408V4.593
					c0-5.186,5.037-9.408,10.223-9.408h85.482c5.185,0,9.406,4.222,9.406,9.408V54C103.74,59.186,98.777,63.334,93.519,63.334z"/>
			</g>
		</g>
	</g>
</g>
<g id="pagina-basica-azul" display="none">
	<g display="inline">
		<path d="M146.111,110.814c0,9.852-7.926,17.778-17.777,17.778H-25.741c-9.852,0-17.778-7.927-17.778-17.778V-43.259
			c0-9.852,7.926-17.778,17.778-17.778h154.075c9.852,0,17.777,7.926,17.777,17.778V110.814z"/>
		<path d="M107.593-3.407v64.073l-7.407,6.668L3,69.111l59.852,59.481h65.482c9.852,0,17.777-7.927,17.777-17.778v-76L107.593-3.407
			z"/>
		<g>
			<g>
				<path d="M99.074-11.185H3c-5.852,0-10.593,4.444-11.111,10.148c0,0.371-0.148,0.667-0.148,1.037v58.889
					c0,6.223,5.037,11.26,11.259,11.26h96.074c5.852,0,10.592-4.445,11.111-10.148c0.074-0.37,0.148-0.74,0.148-1.111V0
					C110.334-6.222,105.297-11.185,99.074-11.185z M94.407,64.37H6.852c-5.333,0-9.63-4.296-9.63-9.63V4.148
					c0-5.333,5.111-9.629,10.444-9.629h87.556c5.333,0,9.629,4.296,9.629,9.629V54.74C104.926,60.074,99.74,64.37,94.407,64.37z"/>
			</g>
		</g>
	</g>
</g>
<path fill="none" stroke="#55656F" stroke-miterlimit="10" d="M154.565,57.074H126.86c-0.814,0-1.555,0.666-1.555,1.555v3.111
	c0,0.814,0.666,1.557,1.555,1.557h27.779c0.814,0,1.555-0.668,1.555-1.557v-3.111C156.12,57.814,155.454,57.074,154.565,57.074z"/>
<path fill="none" stroke="#55656F" stroke-miterlimit="10" d="M177.939,49.5c0,2.209-1.791,4-4,4h-66.379c-2.209,0-4-1.791-4-4
	V13.167c0-2.209,1.791-4,4-4h66.379c2.209,0,4,1.791,4,4V49.5z"/>
</svg>
